<svg width="32" height="32" viewBox="0 0 32 32" fill="none" xmlns="http://www.w3.org/2000/svg">
    <circle cx="16" cy="16" r="16" fill="#D9D9D9" />
    <path
        d="M13.4 5.83C13.4 5.03667 13.68 4.37167 14.24 3.835C14.8 3.275 15.465 2.995 16.235 2.995C17.005 2.995 17.6583 3.275 18.195 3.835C18.755 4.37167 19.035 5.03667 19.035 5.83C19.035 6.62333 18.755 7.28833 18.195 7.825C17.6583 8.36167 17.005 8.63 16.235 8.63C15.465 8.63 14.8 8.36167 14.24 7.825C13.68 7.28833 13.4 6.62333 13.4 5.83ZM13.925 11.22H14.31C15.5233 11.22 16.5383 11.5467 17.355 12.2C18.195 12.8533 18.615 13.8917 18.615 15.315V29H18.405C17.8683 29 17.3317 28.93 16.795 28.79C16.2817 28.65 15.8033 28.4283 15.36 28.125C14.94 27.7983 14.59 27.39 14.31 26.9C14.0533 26.3867 13.925 25.7567 13.925 25.01V11.22Z"
        fill="black" />
</svg>
    