<svg width="32" height="32" viewBox="0 0 32 32" fill="none" xmlns="http://www.w3.org/2000/svg">
    <mask id="path-1-inside-1_0_1" fill="white">
        <path
            d="M26.655 24.3699C27.7194 25.206 27.9156 26.7634 26.9269 27.6877C25.0992 29.3964 22.8873 30.6608 20.4627 31.365C17.2497 32.2982 13.8249 32.2007 10.6702 31.0862C7.51551 29.9717 4.78955 27.8962 2.87579 25.1518C0.962037 22.4073 -0.0432197 19.132 0.00142441 15.7865C0.0460685 12.441 1.13837 9.19366 3.12468 6.50126C5.11098 3.80887 7.89135 1.80689 11.0747 0.776949C14.258 -0.252997 17.6841 -0.259092 20.8711 0.759522C23.276 1.52817 25.4534 2.85113 27.2349 4.60799C28.1986 5.55837 27.9608 7.11004 26.8745 7.91743V7.91743C25.7883 8.72482 24.267 8.47216 23.2413 7.5891C22.1182 6.62218 20.8063 5.88445 19.3789 5.42824C17.1682 4.72166 14.7917 4.72589 12.5835 5.44033C10.3753 6.15476 8.44669 7.54346 7.06886 9.41107C5.69103 11.2787 4.93334 13.5313 4.90237 15.8519C4.8714 18.1726 5.56871 20.4445 6.89622 22.3483C8.22372 24.252 10.1146 25.6916 12.3029 26.4647C14.4912 27.2379 16.8669 27.3055 19.0956 26.6582C20.5347 26.2402 21.8657 25.5377 23.0143 24.6011C24.0632 23.7458 25.5906 23.5338 26.655 24.3699V24.3699Z" />
    </mask>
    <path
        d="M26.655 24.3699C27.7194 25.206 27.9156 26.7634 26.9269 27.6877C25.0992 29.3964 22.8873 30.6608 20.4627 31.365C17.2497 32.2982 13.8249 32.2007 10.6702 31.0862C7.51551 29.9717 4.78955 27.8962 2.87579 25.1518C0.962037 22.4073 -0.0432197 19.132 0.00142441 15.7865C0.0460685 12.441 1.13837 9.19366 3.12468 6.50126C5.11098 3.80887 7.89135 1.80689 11.0747 0.776949C14.258 -0.252997 17.6841 -0.259092 20.8711 0.759522C23.276 1.52817 25.4534 2.85113 27.2349 4.60799C28.1986 5.55837 27.9608 7.11004 26.8745 7.91743V7.91743C25.7883 8.72482 24.267 8.47216 23.2413 7.5891C22.1182 6.62218 20.8063 5.88445 19.3789 5.42824C17.1682 4.72166 14.7917 4.72589 12.5835 5.44033C10.3753 6.15476 8.44669 7.54346 7.06886 9.41107C5.69103 11.2787 4.93334 13.5313 4.90237 15.8519C4.8714 18.1726 5.56871 20.4445 6.89622 22.3483C8.22372 24.252 10.1146 25.6916 12.3029 26.4647C14.4912 27.2379 16.8669 27.3055 19.0956 26.6582C20.5347 26.2402 21.8657 25.5377 23.0143 24.6011C24.0632 23.7458 25.5906 23.5338 26.655 24.3699V24.3699Z"
        stroke="black" stroke-width="4" stroke-miterlimit="3.99933" stroke-linecap="round"
        mask="url(#path-1-inside-1_0_1)" />
    <rect x="10" y="13" width="18" height="7" rx="2" fill="black" />
    <path
        d="M30.7465 15.6837C31.3254 16.0825 31.3231 16.9384 30.7419 17.334L25.3032 21.0361C24.6383 21.4887 23.7383 21.011 23.7405 20.2067L23.7609 12.7726C23.7631 11.9683 24.6657 11.4956 25.3281 11.9518L30.7465 15.6837Z"
        fill="black" />
</svg>
    