<svg width="29" height="16" viewBox="0 0 29 16" fill="none" xmlns="http://www.w3.org/2000/svg">
    <path d="M7 1L13 8" stroke="black" stroke-linecap="round" />
    <path d="M17 1H19" stroke="black" stroke-linecap="round" />
    <path d="M12 4L15 4" stroke="black" stroke-linecap="round" />
    <path d="M13 8L16 8" stroke="black" stroke-linecap="round" />
    <path d="M13 6L15 6" stroke="black" stroke-linecap="round" />
    <path d="M17 1L16 8" stroke="black" stroke-linecap="round" />
    <path
        d="M3.834 9.556C3.834 9.756 3.738 9.934 3.546 10.09C3.358 10.246 3.14 10.36 2.892 10.432C2.648 10.504 2.412 10.54 2.184 10.54C2.124 10.54 2.08 10.538 2.052 10.534V10.33C2.06 10.33 2.176 10.312 2.4 10.276C2.624 10.236 2.812 10.168 2.964 10.072C3.12 9.976 3.198 9.868 3.198 9.748C3.198 9.604 3.09 9.532 2.874 9.532C2.582 9.532 2.306 9.632 2.046 9.832C1.786 10.032 1.656 10.242 1.656 10.462C1.656 10.682 1.792 10.824 2.064 10.888C2.124 10.904 2.164 10.92 2.184 10.936C2.204 10.952 2.214 10.98 2.214 11.02C2.214 11.06 2.194 11.094 2.154 11.122C2.118 11.146 2.032 11.182 1.896 11.23C1.16 11.482 0.792 11.874 0.792 12.406C0.792 12.514 0.812 12.606 0.852 12.682C1.096 12.37 1.412 12.116 1.8 11.92C2.188 11.724 2.562 11.626 2.922 11.626C3.11 11.626 3.26 11.668 3.372 11.752C3.484 11.832 3.54 11.944 3.54 12.088C3.54 12.312 3.436 12.536 3.228 12.76C3.02 12.984 2.75 13.166 2.418 13.306C2.09 13.45 1.762 13.522 1.434 13.522C1.11 13.522 0.854 13.462 0.666 13.342C0.662 13.346 0.644 13.376 0.612 13.432C0.532 13.592 0.464 13.704 0.408 13.768L0.21 13.684C0.238 13.572 0.32 13.402 0.456 13.174C0.272 12.966 0.18 12.734 0.18 12.478C0.18 12.218 0.284 11.972 0.492 11.74C0.704 11.504 0.998 11.31 1.374 11.158C1.186 11.002 1.092 10.84 1.092 10.672C1.092 10.444 1.212 10.212 1.452 9.976C1.692 9.736 1.984 9.542 2.328 9.394C2.676 9.246 3.002 9.172 3.306 9.172C3.466 9.172 3.594 9.208 3.69 9.28C3.786 9.348 3.834 9.44 3.834 9.556ZM2.574 11.986C2.338 11.986 2.062 12.076 1.746 12.256C1.434 12.436 1.18 12.65 0.984 12.898C1.144 13.078 1.37 13.168 1.662 13.168C1.958 13.168 2.246 13.074 2.526 12.886C2.81 12.694 2.952 12.488 2.952 12.268C2.952 12.18 2.918 12.112 2.85 12.064C2.782 12.012 2.69 11.986 2.574 11.986ZM6.03567 10.654L5.98167 10.888C5.91367 10.88 5.82567 10.876 5.71767 10.876C5.31767 10.876 5.11767 11.008 5.11767 11.272C5.11767 11.328 5.19767 11.492 5.35767 11.764C5.52167 12.036 5.60367 12.218 5.60367 12.31C5.60367 12.526 5.52967 12.696 5.38167 12.82C5.23767 12.94 5.04367 13 4.79967 13C4.46367 13 4.19367 12.814 3.98967 12.442L4.21767 12.28C4.27367 12.324 4.33367 12.378 4.39767 12.442C4.46167 12.502 4.50967 12.544 4.54167 12.568C4.61767 12.636 4.70167 12.67 4.79367 12.67C4.88567 12.67 4.96567 12.638 5.03367 12.574C5.10167 12.506 5.13567 12.424 5.13567 12.328C5.13567 12.228 5.04767 12.044 4.87167 11.776C4.69967 11.508 4.61367 11.32 4.61367 11.212C4.61367 11.016 4.69567 10.866 4.85967 10.762C5.02767 10.658 5.24567 10.606 5.51367 10.606C5.78567 10.606 5.95967 10.622 6.03567 10.654ZM7.464 12.328L7.596 12.478C7.496 12.634 7.374 12.756 7.23 12.844C7.09 12.932 6.948 12.976 6.804 12.976C6.66 12.976 6.546 12.936 6.462 12.856C6.378 12.772 6.336 12.658 6.336 12.514C6.336 12.178 6.462 11.714 6.714 11.122C6.51 11.154 6.306 11.202 6.102 11.266L6.06 11.032L6.054 11.026C6.254 10.942 6.516 10.874 6.84 10.822C6.872 10.762 6.944 10.616 7.056 10.384C7.28 9.924 7.44 9.626 7.536 9.49L7.794 9.592C7.754 9.68 7.684 9.828 7.584 10.036C7.484 10.24 7.372 10.472 7.248 10.732C7.428 10.72 7.57 10.714 7.674 10.714C7.778 10.714 7.858 10.73 7.914 10.762V11.02C7.858 11.008 7.776 11.002 7.668 11.002C7.564 11.002 7.376 11.02 7.104 11.056C6.868 11.584 6.75 11.968 6.75 12.208C6.75 12.3 6.778 12.376 6.834 12.436C6.894 12.496 6.972 12.526 7.068 12.526C7.168 12.526 7.3 12.46 7.464 12.328ZM10.5065 12.622L10.5245 12.778C10.5085 12.79 10.3225 12.862 9.96647 12.994C9.91847 13.258 9.85647 13.518 9.78047 13.774C9.70847 14.034 9.63447 14.23 9.55847 14.362C9.48647 14.498 9.40047 14.632 9.30047 14.764C9.10047 15.028 8.83047 15.16 8.49047 15.16C8.32247 15.16 8.18847 15.108 8.08847 15.004C7.98847 14.9 7.93847 14.758 7.93847 14.578C7.93847 13.886 8.51847 13.33 9.67847 12.91L10.0025 11.77C9.65847 12.286 9.34847 12.604 9.07247 12.724C8.93647 12.788 8.79247 12.82 8.64047 12.82C8.49247 12.82 8.37247 12.772 8.28047 12.676C8.19247 12.58 8.14847 12.44 8.14847 12.256C8.14847 12.072 8.21047 11.816 8.33447 11.488C8.46247 11.156 8.60447 10.878 8.76047 10.654L9.05447 10.78C9.04247 10.792 8.98647 10.898 8.88647 11.098C8.71047 11.462 8.62247 11.732 8.62247 11.908C8.62247 12.084 8.65647 12.202 8.72447 12.262C8.79247 12.322 8.89247 12.352 9.02447 12.352C9.15647 12.352 9.30447 12.274 9.46847 12.118C9.63647 11.958 9.89447 11.644 10.2425 11.176L10.4585 11.302C10.4265 11.434 10.3545 11.674 10.2425 12.022C10.1345 12.366 10.0605 12.63 10.0205 12.814L10.5065 12.622ZM9.64247 13.09C9.39047 13.206 9.16847 13.338 8.97647 13.486C8.61647 13.758 8.43647 14.022 8.43647 14.278C8.43647 14.374 8.46447 14.452 8.52047 14.512C8.57647 14.572 8.64647 14.602 8.73047 14.602C9.13047 14.602 9.43447 14.098 9.64247 13.09ZM12.4575 11.218C12.5615 11.39 12.6135 11.58 12.6135 11.788C12.6135 12.112 12.5015 12.402 12.2775 12.658C12.0535 12.91 11.7895 13.036 11.4855 13.036C11.2535 13.036 11.0715 12.97 10.9395 12.838C10.8115 12.702 10.7475 12.516 10.7475 12.28C10.7475 11.9 10.8955 11.56 11.1915 11.26C11.4875 10.956 11.8195 10.804 12.1875 10.804C12.2555 10.804 12.3035 10.806 12.3315 10.81L12.3495 11.008C12.0295 11.008 11.7635 11.1 11.5515 11.284C11.3395 11.468 11.2335 11.704 11.2335 11.992C11.2335 12.164 11.2755 12.304 11.3595 12.412C11.4435 12.516 11.5655 12.568 11.7255 12.568C11.8895 12.568 12.0195 12.496 12.1155 12.352C12.2115 12.208 12.2595 12.04 12.2595 11.848C12.2595 11.652 12.2215 11.474 12.1455 11.314L12.4575 11.218ZM14.6958 10.654L14.6418 10.888C14.5738 10.88 14.4858 10.876 14.3778 10.876C13.9778 10.876 13.7778 11.008 13.7778 11.272C13.7778 11.328 13.8578 11.492 14.0178 11.764C14.1818 12.036 14.2638 12.218 14.2638 12.31C14.2638 12.526 14.1898 12.696 14.0418 12.82C13.8978 12.94 13.7038 13 13.4598 13C13.1238 13 12.8538 12.814 12.6498 12.442L12.8778 12.28C12.9338 12.324 12.9938 12.378 13.0578 12.442C13.1218 12.502 13.1698 12.544 13.2018 12.568C13.2778 12.636 13.3618 12.67 13.4538 12.67C13.5458 12.67 13.6258 12.638 13.6938 12.574C13.7618 12.506 13.7958 12.424 13.7958 12.328C13.7958 12.228 13.7078 12.044 13.5318 11.776C13.3598 11.508 13.2738 11.32 13.2738 11.212C13.2738 11.016 13.3558 10.866 13.5198 10.762C13.6878 10.658 13.9058 10.606 14.1738 10.606C14.4458 10.606 14.6198 10.622 14.6958 10.654ZM20.699 11.914L21.125 11.908V12.154C21.077 12.146 21.021 12.142 20.957 12.142C20.893 12.142 20.821 12.146 20.741 12.154C20.741 12.462 20.593 12.774 20.297 13.09C20.001 13.406 19.643 13.662 19.223 13.858C18.807 14.058 18.419 14.158 18.059 14.158C17.871 14.158 17.717 14.11 17.597 14.014C17.481 13.918 17.423 13.792 17.423 13.636C17.423 13.404 17.577 13.162 17.885 12.91C18.193 12.658 18.553 12.45 18.965 12.286C19.377 12.122 19.749 12.026 20.081 11.998C20.041 11.938 19.979 11.886 19.895 11.842C19.811 11.798 19.639 11.73 19.379 11.638C19.119 11.542 18.935 11.438 18.827 11.326C18.719 11.21 18.665 11.048 18.665 10.84C18.665 10.632 18.777 10.394 19.001 10.126C19.225 9.858 19.489 9.634 19.793 9.454C20.101 9.27 20.371 9.178 20.603 9.178C20.707 9.178 20.793 9.216 20.861 9.292C20.929 9.364 20.963 9.454 20.963 9.562C20.963 9.738 20.857 9.96 20.645 10.228C20.433 10.492 20.197 10.694 19.937 10.834L19.793 10.63C19.949 10.55 20.085 10.426 20.201 10.258C20.321 10.086 20.381 9.938 20.381 9.814C20.381 9.69 20.315 9.628 20.183 9.628C19.995 9.628 19.779 9.746 19.535 9.982C19.295 10.214 19.175 10.432 19.175 10.636C19.175 10.776 19.211 10.886 19.283 10.966C19.355 11.046 19.537 11.146 19.829 11.266C20.121 11.382 20.329 11.486 20.453 11.578C20.577 11.666 20.659 11.778 20.699 11.914ZM18.023 13.48C18.023 13.672 18.179 13.768 18.491 13.768C18.663 13.768 18.885 13.704 19.157 13.576C19.433 13.452 19.675 13.276 19.883 13.048C20.095 12.824 20.201 12.594 20.201 12.358C20.201 12.33 20.195 12.288 20.183 12.232C19.635 12.284 19.137 12.438 18.689 12.694C18.245 12.95 18.023 13.212 18.023 13.48ZM23.6807 12.562L23.8187 12.676C23.6507 12.956 23.4327 13.096 23.1647 13.096C22.9327 13.096 22.8167 12.982 22.8167 12.754C22.8167 12.622 22.8727 12.412 22.9847 12.124C23.1007 11.832 23.1587 11.64 23.1587 11.548C23.1587 11.432 23.0847 11.374 22.9367 11.374C22.7887 11.374 22.5867 11.534 22.3307 11.854C22.0787 12.17 21.8667 12.538 21.6947 12.958L21.3407 12.832C21.5487 11.788 22.0927 10.39 22.9727 8.638L23.2667 8.734C22.8227 9.622 22.5047 10.328 22.3127 10.852C22.1127 11.396 21.9627 11.846 21.8627 12.202C22.1707 11.694 22.4347 11.342 22.6547 11.146C22.8787 10.95 23.0727 10.852 23.2367 10.852C23.5327 10.852 23.6807 10.958 23.6807 11.17C23.6807 11.302 23.6067 11.538 23.4587 11.878C23.3107 12.218 23.2367 12.444 23.2367 12.556C23.2367 12.668 23.2907 12.724 23.3987 12.724C23.4547 12.724 23.5487 12.67 23.6807 12.562ZM25.6704 11.218C25.7744 11.39 25.8264 11.58 25.8264 11.788C25.8264 12.112 25.7144 12.402 25.4904 12.658C25.2664 12.91 25.0024 13.036 24.6984 13.036C24.4664 13.036 24.2844 12.97 24.1524 12.838C24.0244 12.702 23.9604 12.516 23.9604 12.28C23.9604 11.9 24.1084 11.56 24.4044 11.26C24.7004 10.956 25.0324 10.804 25.4004 10.804C25.4684 10.804 25.5164 10.806 25.5444 10.81L25.5624 11.008C25.2424 11.008 24.9764 11.1 24.7644 11.284C24.5524 11.468 24.4464 11.704 24.4464 11.992C24.4464 12.164 24.4884 12.304 24.5724 12.412C24.6564 12.516 24.7784 12.568 24.9384 12.568C25.1024 12.568 25.2324 12.496 25.3284 12.352C25.4244 12.208 25.4724 12.04 25.4724 11.848C25.4724 11.652 25.4344 11.474 25.3584 11.314L25.6704 11.218ZM26.8407 11.896C27.1447 11.44 27.4087 11.13 27.6327 10.966C27.8567 10.798 28.0527 10.714 28.2207 10.714C28.3887 10.714 28.5187 10.766 28.6107 10.87C28.7027 10.97 28.7487 11.098 28.7487 11.254C28.7487 11.686 28.5927 12.086 28.2807 12.454C27.9727 12.818 27.6247 13 27.2367 13C27.0647 13 26.9287 12.97 26.8287 12.91L26.9727 12.652C27.1807 12.68 27.3107 12.694 27.3627 12.694C27.5787 12.694 27.7807 12.568 27.9687 12.316C28.1567 12.064 28.2507 11.806 28.2507 11.542C28.2507 11.442 28.2207 11.36 28.1607 11.296C28.1047 11.228 28.0307 11.194 27.9387 11.194C27.7187 11.194 27.4687 11.388 27.1887 11.776C26.9127 12.164 26.6527 12.644 26.4087 13.216C26.1687 13.792 25.9587 14.404 25.7787 15.052L25.4187 14.926C25.4267 14.902 25.5027 14.694 25.6467 14.302C25.7867 13.914 25.9247 13.528 26.0607 13.144C26.4367 12.088 26.6247 11.51 26.6247 11.41C26.6247 11.154 26.5727 10.922 26.4687 10.714L26.7687 10.564C26.8927 10.736 26.9547 10.918 26.9547 11.11C26.9547 11.298 26.9167 11.56 26.8407 11.896Z"
        fill="black" />
</svg>
    
    