<svg width="29" height="8" viewBox="0 0 29 8" fill="none" xmlns="http://www.w3.org/2000/svg">
    <path
        d="M3.834 1.556C3.834 1.756 3.738 1.934 3.546 2.09C3.358 2.246 3.14 2.36 2.892 2.432C2.648 2.504 2.412 2.54 2.184 2.54C2.124 2.54 2.08 2.538 2.052 2.534V2.33C2.06 2.33 2.176 2.312 2.4 2.276C2.624 2.236 2.812 2.168 2.964 2.072C3.12 1.976 3.198 1.868 3.198 1.748C3.198 1.604 3.09 1.532 2.874 1.532C2.582 1.532 2.306 1.632 2.046 1.832C1.786 2.032 1.656 2.242 1.656 2.462C1.656 2.682 1.792 2.824 2.064 2.888C2.124 2.904 2.164 2.92 2.184 2.936C2.204 2.952 2.214 2.98 2.214 3.02C2.214 3.06 2.194 3.094 2.154 3.122C2.118 3.146 2.032 3.182 1.896 3.23C1.16 3.482 0.792 3.874 0.792 4.406C0.792 4.514 0.812 4.606 0.852 4.682C1.096 4.37 1.412 4.116 1.8 3.92C2.188 3.724 2.562 3.626 2.922 3.626C3.11 3.626 3.26 3.668 3.372 3.752C3.484 3.832 3.54 3.944 3.54 4.088C3.54 4.312 3.436 4.536 3.228 4.76C3.02 4.984 2.75 5.166 2.418 5.306C2.09 5.45 1.762 5.522 1.434 5.522C1.11 5.522 0.854 5.462 0.666 5.342C0.662 5.346 0.644 5.376 0.612 5.432C0.532 5.592 0.464 5.704 0.408 5.768L0.21 5.684C0.238 5.572 0.32 5.402 0.456 5.174C0.272 4.966 0.18 4.734 0.18 4.478C0.18 4.218 0.284 3.972 0.492 3.74C0.704 3.504 0.998 3.31 1.374 3.158C1.186 3.002 1.092 2.84 1.092 2.672C1.092 2.444 1.212 2.212 1.452 1.976C1.692 1.736 1.984 1.542 2.328 1.394C2.676 1.246 3.002 1.172 3.306 1.172C3.466 1.172 3.594 1.208 3.69 1.28C3.786 1.348 3.834 1.44 3.834 1.556ZM2.574 3.986C2.338 3.986 2.062 4.076 1.746 4.256C1.434 4.436 1.18 4.65 0.984 4.898C1.144 5.078 1.37 5.168 1.662 5.168C1.958 5.168 2.246 5.074 2.526 4.886C2.81 4.694 2.952 4.488 2.952 4.268C2.952 4.18 2.918 4.112 2.85 4.064C2.782 4.012 2.69 3.986 2.574 3.986ZM6.03567 2.654L5.98167 2.888C5.91367 2.88 5.82567 2.876 5.71767 2.876C5.31767 2.876 5.11767 3.008 5.11767 3.272C5.11767 3.328 5.19767 3.492 5.35767 3.764C5.52167 4.036 5.60367 4.218 5.60367 4.31C5.60367 4.526 5.52967 4.696 5.38167 4.82C5.23767 4.94 5.04367 5 4.79967 5C4.46367 5 4.19367 4.814 3.98967 4.442L4.21767 4.28C4.27367 4.324 4.33367 4.378 4.39767 4.442C4.46167 4.502 4.50967 4.544 4.54167 4.568C4.61767 4.636 4.70167 4.67 4.79367 4.67C4.88567 4.67 4.96567 4.638 5.03367 4.574C5.10167 4.506 5.13567 4.424 5.13567 4.328C5.13567 4.228 5.04767 4.044 4.87167 3.776C4.69967 3.508 4.61367 3.32 4.61367 3.212C4.61367 3.016 4.69567 2.866 4.85967 2.762C5.02767 2.658 5.24567 2.606 5.51367 2.606C5.78567 2.606 5.95967 2.622 6.03567 2.654ZM7.464 4.328L7.596 4.478C7.496 4.634 7.374 4.756 7.23 4.844C7.09 4.932 6.948 4.976 6.804 4.976C6.66 4.976 6.546 4.936 6.462 4.856C6.378 4.772 6.336 4.658 6.336 4.514C6.336 4.178 6.462 3.714 6.714 3.122C6.51 3.154 6.306 3.202 6.102 3.266L6.06 3.032L6.054 3.026C6.254 2.942 6.516 2.874 6.84 2.822C6.872 2.762 6.944 2.616 7.056 2.384C7.28 1.924 7.44 1.626 7.536 1.49L7.794 1.592C7.754 1.68 7.684 1.828 7.584 2.036C7.484 2.24 7.372 2.472 7.248 2.732C7.428 2.72 7.57 2.714 7.674 2.714C7.778 2.714 7.858 2.73 7.914 2.762V3.02C7.858 3.008 7.776 3.002 7.668 3.002C7.564 3.002 7.376 3.02 7.104 3.056C6.868 3.584 6.75 3.968 6.75 4.208C6.75 4.3 6.778 4.376 6.834 4.436C6.894 4.496 6.972 4.526 7.068 4.526C7.168 4.526 7.3 4.46 7.464 4.328ZM10.5065 4.622L10.5245 4.778C10.5085 4.79 10.3225 4.862 9.96647 4.994C9.91847 5.258 9.85647 5.518 9.78047 5.774C9.70847 6.034 9.63447 6.23 9.55847 6.362C9.48647 6.498 9.40047 6.632 9.30047 6.764C9.10047 7.028 8.83047 7.16 8.49047 7.16C8.32247 7.16 8.18847 7.108 8.08847 7.004C7.98847 6.9 7.93847 6.758 7.93847 6.578C7.93847 5.886 8.51847 5.33 9.67847 4.91L10.0025 3.77C9.65847 4.286 9.34847 4.604 9.07247 4.724C8.93647 4.788 8.79247 4.82 8.64047 4.82C8.49247 4.82 8.37247 4.772 8.28047 4.676C8.19247 4.58 8.14847 4.44 8.14847 4.256C8.14847 4.072 8.21047 3.816 8.33447 3.488C8.46247 3.156 8.60447 2.878 8.76047 2.654L9.05447 2.78C9.04247 2.792 8.98647 2.898 8.88647 3.098C8.71047 3.462 8.62247 3.732 8.62247 3.908C8.62247 4.084 8.65647 4.202 8.72447 4.262C8.79247 4.322 8.89247 4.352 9.02447 4.352C9.15647 4.352 9.30447 4.274 9.46847 4.118C9.63647 3.958 9.89447 3.644 10.2425 3.176L10.4585 3.302C10.4265 3.434 10.3545 3.674 10.2425 4.022C10.1345 4.366 10.0605 4.63 10.0205 4.814L10.5065 4.622ZM9.64247 5.09C9.39047 5.206 9.16847 5.338 8.97647 5.486C8.61647 5.758 8.43647 6.022 8.43647 6.278C8.43647 6.374 8.46447 6.452 8.52047 6.512C8.57647 6.572 8.64647 6.602 8.73047 6.602C9.13047 6.602 9.43447 6.098 9.64247 5.09ZM12.4575 3.218C12.5615 3.39 12.6135 3.58 12.6135 3.788C12.6135 4.112 12.5015 4.402 12.2775 4.658C12.0535 4.91 11.7895 5.036 11.4855 5.036C11.2535 5.036 11.0715 4.97 10.9395 4.838C10.8115 4.702 10.7475 4.516 10.7475 4.28C10.7475 3.9 10.8955 3.56 11.1915 3.26C11.4875 2.956 11.8195 2.804 12.1875 2.804C12.2555 2.804 12.3035 2.806 12.3315 2.81L12.3495 3.008C12.0295 3.008 11.7635 3.1 11.5515 3.284C11.3395 3.468 11.2335 3.704 11.2335 3.992C11.2335 4.164 11.2755 4.304 11.3595 4.412C11.4435 4.516 11.5655 4.568 11.7255 4.568C11.8895 4.568 12.0195 4.496 12.1155 4.352C12.2115 4.208 12.2595 4.04 12.2595 3.848C12.2595 3.652 12.2215 3.474 12.1455 3.314L12.4575 3.218ZM14.6958 2.654L14.6418 2.888C14.5738 2.88 14.4858 2.876 14.3778 2.876C13.9778 2.876 13.7778 3.008 13.7778 3.272C13.7778 3.328 13.8578 3.492 14.0178 3.764C14.1818 4.036 14.2638 4.218 14.2638 4.31C14.2638 4.526 14.1898 4.696 14.0418 4.82C13.8978 4.94 13.7038 5 13.4598 5C13.1238 5 12.8538 4.814 12.6498 4.442L12.8778 4.28C12.9338 4.324 12.9938 4.378 13.0578 4.442C13.1218 4.502 13.1698 4.544 13.2018 4.568C13.2778 4.636 13.3618 4.67 13.4538 4.67C13.5458 4.67 13.6258 4.638 13.6938 4.574C13.7618 4.506 13.7958 4.424 13.7958 4.328C13.7958 4.228 13.7078 4.044 13.5318 3.776C13.3598 3.508 13.2738 3.32 13.2738 3.212C13.2738 3.016 13.3558 2.866 13.5198 2.762C13.6878 2.658 13.9058 2.606 14.1738 2.606C14.4458 2.606 14.6198 2.622 14.6958 2.654ZM20.699 3.914L21.125 3.908V4.154C21.077 4.146 21.021 4.142 20.957 4.142C20.893 4.142 20.821 4.146 20.741 4.154C20.741 4.462 20.593 4.774 20.297 5.09C20.001 5.406 19.643 5.662 19.223 5.858C18.807 6.058 18.419 6.158 18.059 6.158C17.871 6.158 17.717 6.11 17.597 6.014C17.481 5.918 17.423 5.792 17.423 5.636C17.423 5.404 17.577 5.162 17.885 4.91C18.193 4.658 18.553 4.45 18.965 4.286C19.377 4.122 19.749 4.026 20.081 3.998C20.041 3.938 19.979 3.886 19.895 3.842C19.811 3.798 19.639 3.73 19.379 3.638C19.119 3.542 18.935 3.438 18.827 3.326C18.719 3.21 18.665 3.048 18.665 2.84C18.665 2.632 18.777 2.394 19.001 2.126C19.225 1.858 19.489 1.634 19.793 1.454C20.101 1.27 20.371 1.178 20.603 1.178C20.707 1.178 20.793 1.216 20.861 1.292C20.929 1.364 20.963 1.454 20.963 1.562C20.963 1.738 20.857 1.96 20.645 2.228C20.433 2.492 20.197 2.694 19.937 2.834L19.793 2.63C19.949 2.55 20.085 2.426 20.201 2.258C20.321 2.086 20.381 1.938 20.381 1.814C20.381 1.69 20.315 1.628 20.183 1.628C19.995 1.628 19.779 1.746 19.535 1.982C19.295 2.214 19.175 2.432 19.175 2.636C19.175 2.776 19.211 2.886 19.283 2.966C19.355 3.046 19.537 3.146 19.829 3.266C20.121 3.382 20.329 3.486 20.453 3.578C20.577 3.666 20.659 3.778 20.699 3.914ZM18.023 5.48C18.023 5.672 18.179 5.768 18.491 5.768C18.663 5.768 18.885 5.704 19.157 5.576C19.433 5.452 19.675 5.276 19.883 5.048C20.095 4.824 20.201 4.594 20.201 4.358C20.201 4.33 20.195 4.288 20.183 4.232C19.635 4.284 19.137 4.438 18.689 4.694C18.245 4.95 18.023 5.212 18.023 5.48ZM23.6807 4.562L23.8187 4.676C23.6507 4.956 23.4327 5.096 23.1647 5.096C22.9327 5.096 22.8167 4.982 22.8167 4.754C22.8167 4.622 22.8727 4.412 22.9847 4.124C23.1007 3.832 23.1587 3.64 23.1587 3.548C23.1587 3.432 23.0847 3.374 22.9367 3.374C22.7887 3.374 22.5867 3.534 22.3307 3.854C22.0787 4.17 21.8667 4.538 21.6947 4.958L21.3407 4.832C21.5487 3.788 22.0927 2.39 22.9727 0.638L23.2667 0.734C22.8227 1.622 22.5047 2.328 22.3127 2.852C22.1127 3.396 21.9627 3.846 21.8627 4.202C22.1707 3.694 22.4347 3.342 22.6547 3.146C22.8787 2.95 23.0727 2.852 23.2367 2.852C23.5327 2.852 23.6807 2.958 23.6807 3.17C23.6807 3.302 23.6067 3.538 23.4587 3.878C23.3107 4.218 23.2367 4.444 23.2367 4.556C23.2367 4.668 23.2907 4.724 23.3987 4.724C23.4547 4.724 23.5487 4.67 23.6807 4.562ZM25.6704 3.218C25.7744 3.39 25.8264 3.58 25.8264 3.788C25.8264 4.112 25.7144 4.402 25.4904 4.658C25.2664 4.91 25.0024 5.036 24.6984 5.036C24.4664 5.036 24.2844 4.97 24.1524 4.838C24.0244 4.702 23.9604 4.516 23.9604 4.28C23.9604 3.9 24.1084 3.56 24.4044 3.26C24.7004 2.956 25.0324 2.804 25.4004 2.804C25.4684 2.804 25.5164 2.806 25.5444 2.81L25.5624 3.008C25.2424 3.008 24.9764 3.1 24.7644 3.284C24.5524 3.468 24.4464 3.704 24.4464 3.992C24.4464 4.164 24.4884 4.304 24.5724 4.412C24.6564 4.516 24.7784 4.568 24.9384 4.568C25.1024 4.568 25.2324 4.496 25.3284 4.352C25.4244 4.208 25.4724 4.04 25.4724 3.848C25.4724 3.652 25.4344 3.474 25.3584 3.314L25.6704 3.218ZM26.8407 3.896C27.1447 3.44 27.4087 3.13 27.6327 2.966C27.8567 2.798 28.0527 2.714 28.2207 2.714C28.3887 2.714 28.5187 2.766 28.6107 2.87C28.7027 2.97 28.7487 3.098 28.7487 3.254C28.7487 3.686 28.5927 4.086 28.2807 4.454C27.9727 4.818 27.6247 5 27.2367 5C27.0647 5 26.9287 4.97 26.8287 4.91L26.9727 4.652C27.1807 4.68 27.3107 4.694 27.3627 4.694C27.5787 4.694 27.7807 4.568 27.9687 4.316C28.1567 4.064 28.2507 3.806 28.2507 3.542C28.2507 3.442 28.2207 3.36 28.1607 3.296C28.1047 3.228 28.0307 3.194 27.9387 3.194C27.7187 3.194 27.4687 3.388 27.1887 3.776C26.9127 4.164 26.6527 4.644 26.4087 5.216C26.1687 5.792 25.9587 6.404 25.7787 7.052L25.4187 6.926C25.4267 6.902 25.5027 6.694 25.6467 6.302C25.7867 5.914 25.9247 5.528 26.0607 5.144C26.4367 4.088 26.6247 3.51 26.6247 3.41C26.6247 3.154 26.5727 2.922 26.4687 2.714L26.7687 2.564C26.8927 2.736 26.9547 2.918 26.9547 3.11C26.9547 3.298 26.9167 3.56 26.8407 3.896Z"
        fill="black" />
</svg>
    